<?xml version="1.0" encoding="UTF-8"?>
<!DOCTYPE svg PUBLIC "-//W3C//DTD SVG 1.1//EN" "http://www.w3.org/Graphics/SVG/1.1/DTD/svg11.dtd">
<svg xmlns="http://www.w3.org/2000/svg" version="1.1" width="2304px" height="1311px" style="shape-rendering:geometricPrecision; text-rendering:geometricPrecision; image-rendering:optimizeQuality; fill-rule:evenodd; clip-rule:evenodd" xmlns:xlink="http://www.w3.org/1999/xlink">
<g><path style="opacity:0.999" fill="#fefefe" d="M -0.5,-0.5 C 767.5,-0.5 1535.5,-0.5 2303.5,-0.5C 2303.5,436.5 2303.5,873.5 2303.5,1310.5C 1535.5,1310.5 767.5,1310.5 -0.5,1310.5C -0.5,873.5 -0.5,436.5 -0.5,-0.5 Z"/></g>
<g><path style="opacity:1" fill="#1f1f1f" d="M 1041.5,184.5 C 1043.56,184.687 1045.56,185.187 1047.5,186C 1049.75,187.914 1052.25,189.414 1055,190.5C 1057.57,189.132 1060.07,187.632 1062.5,186C 1074.54,185.93 1084.71,190.43 1093,199.5C 1094.66,204.457 1095,209.457 1094,214.5C 1097.17,216.333 1100.33,218.167 1103.5,220C 1104.8,220.804 1105.47,221.971 1105.5,223.5C 1096.94,238.959 1088.1,254.292 1079,269.5C 1074.47,282.732 1070.97,296.232 1068.5,310C 1082.19,342.568 1076.53,371.234 1051.5,396C 1029.29,412.743 1004.62,417.41 977.5,410C 929.502,392.819 908.335,358.986 914,308.5C 925.448,277.074 947.948,259.907 981.5,257C 994.549,248.288 1006.05,237.788 1016,225.5C 1024.5,211.838 1033,198.171 1041.5,184.5 Z"/></g>
<g><path style="opacity:1" fill="#ededed" d="M 1064.5,193.5 C 1073.4,193.864 1080.56,197.531 1086,204.5C 1086.49,205.793 1086.66,207.127 1086.5,208.5C 1083.98,208.245 1081.65,207.411 1079.5,206C 1074.17,202.667 1068.83,199.333 1063.5,196C 1064.25,195.329 1064.59,194.496 1064.5,193.5 Z"/></g>
<g><path style="opacity:1" fill="#ececec" d="M 1045.5,194.5 C 1062.17,204.166 1078.5,214.333 1094.5,225C 1094.18,227.544 1092.85,228.544 1090.5,228C 1075.17,218.667 1059.83,209.333 1044.5,200C 1043.24,197.924 1043.58,196.09 1045.5,194.5 Z"/></g>
<g><path style="opacity:1" fill="#202020" d="M 942.5,198.5 C 945.642,198.799 947.809,200.466 949,203.5C 952.333,214.167 955.667,224.833 959,235.5C 959.769,238.099 959.602,240.599 958.5,243C 956.833,243.667 955.167,243.667 953.5,243C 948.192,230.073 943.858,216.739 940.5,203C 940.519,201.167 941.185,199.667 942.5,198.5 Z"/></g>
<g><path style="opacity:1" fill="#ededed" d="M 1038.5,205.5 C 1054.47,215.155 1070.47,224.822 1086.5,234.5C 1087.5,239.116 1085.83,240.283 1081.5,238C 1066.13,228.986 1051.13,219.486 1036.5,209.5C 1037.18,208.14 1037.85,206.807 1038.5,205.5 Z"/></g>
<g><path style="opacity:1" fill="#efefef" d="M 1031.5,217.5 C 1047.93,226.745 1064.26,236.245 1080.5,246C 1080.8,250.49 1078.8,251.49 1074.5,249C 1059.13,239.986 1044.13,230.486 1029.5,220.5C 1030.19,219.482 1030.86,218.482 1031.5,217.5 Z"/></g>
<g><path style="opacity:1" fill="#fefefe" d="M 1024.5,227.5 C 1041.34,237.75 1058,248.25 1074.5,259C 1066.64,275.266 1061.64,292.433 1059.5,310.5C 1074.61,345.376 1066.94,373.876 1036.5,396C 996.537,412.896 962.703,404.729 935,371.5C 917.735,346.775 916.068,321.109 930,294.5C 943.992,275.586 962.826,265.752 986.5,265C 998.95,255.55 1010.45,245.05 1021,233.5C 1022.42,231.595 1023.59,229.595 1024.5,227.5 Z"/></g>
<g><path style="opacity:1" fill="#212121" d="M 889.5,259.5 C 897.623,261.082 904.79,264.749 911,270.5C 911.934,275.083 910.1,276.583 905.5,275C 899.577,272.124 894.077,268.624 889,264.5C 888.36,262.735 888.527,261.068 889.5,259.5 Z"/></g>
<g><path style="opacity:1" fill="#202020" d="M 1128.5,314.5 C 1131.93,314.107 1135.1,314.773 1138,316.5C 1139.03,319.217 1138.2,321.051 1135.5,322C 1122.46,324.285 1109.46,326.785 1096.5,329.5C 1092.09,327.636 1091.43,324.803 1094.5,321C 1106.06,319.331 1117.4,317.164 1128.5,314.5 Z"/></g>
<g><path style="opacity:1" fill="#fcd121" d="M 572.5,443.5 C 566.322,449.455 561.656,448.455 558.5,440.5C 555.632,432.562 552.965,424.562 550.5,416.5C 541.11,414.653 531.777,412.486 522.5,410C 515.841,407.367 514.841,403.367 519.5,398C 527.089,392.622 534.589,387.122 542,381.5C 541.922,370.836 541.922,360.169 542,349.5C 544.21,346.71 547.044,345.877 550.5,347C 559.039,352.434 567.706,357.601 576.5,362.5C 585.123,359.237 593.789,356.07 602.5,353C 607.755,351.192 611.089,352.859 612.5,358C 610.36,365.42 608.026,372.753 605.5,380C 699.225,361.988 792.892,343.322 886.5,324C 893.833,323.003 896.666,326.17 895,333.5C 800.164,354.134 704.997,373.634 609.5,392C 608.72,393.073 608.887,394.24 610,395.5C 614.333,400.5 618.667,405.5 623,410.5C 624.056,415.124 622.223,417.957 617.5,419C 607.463,419.204 597.463,419.871 587.5,421C 582.107,428.299 577.107,435.799 572.5,443.5 Z"/></g>
<g><path style="opacity:1" fill="#fffefc" d="M 554.5,364.5 C 560.446,367.477 566.112,370.977 571.5,375C 572.667,375.167 573.833,375.333 575,375.5C 582.255,373.301 589.422,371.134 596.5,369C 592.793,376.442 590.96,384.275 591,392.5C 595.167,397.333 599.333,402.167 603.5,407C 595.821,407.739 588.155,408.572 580.5,409.5C 576.398,415.385 572.064,421.052 567.5,426.5C 565.238,420.882 563.071,415.215 561,409.5C 560.167,408.5 559.333,407.5 558.5,406.5C 551.473,404.659 544.473,402.659 537.5,400.5C 543.766,396.403 549.6,391.737 555,386.5C 555.683,379.139 555.517,371.805 554.5,364.5 Z"/></g>
<g><path style="opacity:1" fill="#222222" d="M 1086.5,378.5 C 1088.2,378.34 1089.87,378.506 1091.5,379C 1096.5,382.834 1101.83,386.167 1107.5,389C 1108.98,394.188 1106.98,396.188 1101.5,395C 1097.33,392.083 1093,389.416 1088.5,387C 1085.39,384.746 1084.73,381.913 1086.5,378.5 Z"/></g>
<g><path style="opacity:1" fill="#212121" d="M 1042.5,422.5 C 1046.42,422.043 1048.92,423.709 1050,427.5C 1053.06,437.252 1055.9,447.085 1058.5,457C 1058.1,460.739 1056.1,462.073 1052.5,461C 1050.96,459.068 1049.79,456.901 1049,454.5C 1046.48,445.068 1043.64,435.735 1040.5,426.5C 1040.75,424.927 1041.42,423.594 1042.5,422.5 Z"/></g>
<g><path style="opacity:1" fill="#fbd021" d="M 950.5,519.5 C 950.167,520.167 949.833,520.833 949.5,521.5C 943.475,529.536 937.809,537.87 932.5,546.5C 920.266,563.956 908.266,581.623 896.5,599.5C 892.811,603.865 889.478,608.531 886.5,613.5C 877.846,626.13 869.179,638.796 860.5,651.5C 857.167,656.5 853.833,661.5 850.5,666.5C 846.942,671.262 843.609,676.262 840.5,681.5C 848.17,682.62 855.837,683.786 863.5,685C 866.287,687.167 867.12,690.001 866,693.5C 860.662,699.67 855.162,705.67 849.5,711.5C 846.877,712.953 845.21,715.12 844.5,718C 845.569,721.774 846.236,725.607 846.5,729.5C 847.869,734.742 848.869,740.076 849.5,745.5C 848.72,751.398 845.387,753.565 839.5,752C 831.514,747.757 823.348,743.924 815,740.5C 807.101,744.867 799.268,749.367 791.5,754C 787.483,756.357 783.983,755.857 781,752.5C 780.846,743.754 781.679,735.087 783.5,726.5C 784.555,723.927 784.722,721.261 784,718.5C 779.999,715.331 776.166,711.997 772.5,708.5C 770.166,705.334 767.333,702.667 764,700.5C 761.207,695.386 762.374,691.553 767.5,689C 777.213,687.024 786.88,684.857 796.5,682.5C 799.241,676.019 802.241,669.686 805.5,663.5C 806.38,660.738 807.546,658.071 809,655.5C 812.667,651.5 816.333,651.5 820,655.5C 821.608,659.056 823.441,662.389 825.5,665.5C 826.462,668.757 827.962,671.757 830,674.5C 832.176,671.471 834.343,668.471 836.5,665.5C 839.833,660.5 843.167,655.5 846.5,650.5C 855.402,637.709 864.068,624.709 872.5,611.5C 876.648,606.552 880.314,601.218 883.5,595.5C 891.734,584.044 899.734,572.378 907.5,560.5C 910.551,556.777 913.218,552.777 915.5,548.5C 921.154,540.538 926.821,532.538 932.5,524.5C 932.833,523.833 933.167,523.167 933.5,522.5C 939.401,514.377 945.068,506.044 950.5,497.5C 964.934,476.82 979.267,455.986 993.5,435C 995.833,434.333 998.167,434.333 1000.5,435C 1002.52,436.028 1003.52,437.695 1003.5,440C 986.454,466.886 968.787,493.386 950.5,519.5 Z"/></g>
<g><path style="opacity:1" fill="#4486f4" d="M 558.5,440.5 C 561.656,448.455 566.322,449.455 572.5,443.5C 602.988,447.539 632.655,454.872 661.5,465.5C 721.378,441.065 783.378,433.231 847.5,442C 881.481,447.078 914.481,455.745 946.5,468C 947.667,469.167 948.833,470.333 950,471.5C 950.5,480.16 950.666,488.827 950.5,497.5C 945.068,506.044 939.401,514.377 933.5,522.5C 932.833,508.833 932.167,495.167 931.5,481.5C 865.878,456.905 798.544,450.738 729.5,463C 717.201,466.491 704.867,469.825 692.5,473C 685.365,475.152 678.532,477.985 672,481.5C 671.5,590.166 671.333,698.833 671.5,807.5C 737.367,783.203 804.7,778.37 873.5,793C 893.387,797.465 913.054,802.631 932.5,808.5C 932.5,721.167 932.5,633.833 932.5,546.5C 937.809,537.87 943.475,529.536 949.5,521.5C 950.5,633.665 950.833,745.999 950.5,858.5C 949.413,863.089 946.58,865.755 942,866.5C 885.799,845.384 827.632,836.217 767.5,839C 730.853,842.786 695.686,851.953 662,866.5C 606.175,845.28 548.342,836.113 488.5,839C 451.965,842.716 416.965,851.882 383.5,866.5C 379.849,866.257 377.016,864.59 375,861.5C 374.333,731.5 374.333,601.5 375,471.5C 378.91,467.792 383.41,464.958 388.5,463C 443.335,441.763 500.002,434.263 558.5,440.5 Z"/></g>
<g><path style="opacity:1" fill="#fdfefe" d="M 394.5,807.5 C 393.501,698.668 393.167,589.668 393.5,480.5C 457.7,454.897 523.7,449.397 591.5,464C 612.502,468.895 633.169,474.728 653.5,481.5C 653.5,590.5 653.5,699.5 653.5,808.5C 608.238,793.65 561.738,785.65 514,784.5C 472.778,785.312 432.945,792.978 394.5,807.5 Z"/></g>
<g><path style="opacity:1" fill="#fdfdfe" d="M 931.5,481.5 C 931.171,496.01 931.504,510.343 932.5,524.5C 926.821,532.538 921.154,540.538 915.5,548.5C 913.5,545.006 910.5,542.84 906.5,542C 854.065,522.754 800.399,518.421 745.5,529C 730.178,533.663 714.844,538.329 699.5,543C 693.831,545.815 691.998,550.315 694,556.5C 695.788,559.628 698.455,560.961 702,560.5C 717.352,556.605 732.518,552.105 747.5,547C 789.693,539.012 831.693,540.012 873.5,550C 884.72,554.019 896.053,557.519 907.5,560.5C 899.734,572.378 891.734,584.044 883.5,595.5C 822.648,578.566 762.648,581.066 703.5,603C 695.2,604.427 692.034,609.26 694,617.5C 695.943,620.465 698.61,622.131 702,622.5C 717.643,617.038 733.476,612.205 749.5,608C 790.818,599.791 831.818,600.958 872.5,611.5C 864.068,624.709 855.402,637.709 846.5,650.5C 845.306,649.223 843.64,648.556 841.5,648.5C 793.396,641.927 746.729,647.427 701.5,665C 694.046,667.417 691.546,672.25 694,679.5C 696.385,681.776 699.219,683.109 702.5,683.5C 721.906,677.052 741.572,671.552 761.5,667C 776.032,664.18 790.698,663.014 805.5,663.5C 802.241,669.686 799.241,676.019 796.5,682.5C 786.88,684.857 777.213,687.024 767.5,689C 762.374,691.553 761.207,695.386 764,700.5C 767.333,702.667 770.166,705.334 772.5,708.5C 749.569,711.65 727.235,717.15 705.5,725C 701.207,726.424 697.374,728.591 694,731.5C 691.7,739.354 694.533,744.021 702.5,745.5C 721.977,737.953 741.977,732.12 762.5,728C 769.46,726.913 776.46,726.413 783.5,726.5C 781.679,735.087 780.846,743.754 781,752.5C 783.983,755.857 787.483,756.357 791.5,754C 799.268,749.367 807.101,744.867 815,740.5C 823.348,743.924 831.514,747.757 839.5,752C 845.387,753.565 848.72,751.398 849.5,745.5C 848.869,740.076 847.869,734.742 846.5,729.5C 867.115,732.321 887.115,737.655 906.5,745.5C 917.644,742.297 919.31,736.463 911.5,728C 891.467,719.992 870.8,714.492 849.5,711.5C 855.162,705.67 860.662,699.67 866,693.5C 867.12,690.001 866.287,687.167 863.5,685C 855.837,683.786 848.17,682.62 840.5,681.5C 843.609,676.262 846.942,671.262 850.5,666.5C 850.62,667.586 851.287,668.253 852.5,668.5C 869.672,671.613 886.339,676.447 902.5,683C 910.493,685.01 915.16,682.01 916.5,674C 915.97,671.793 914.97,669.793 913.5,668C 896.484,660.43 878.817,654.93 860.5,651.5C 869.179,638.796 877.846,626.13 886.5,613.5C 886.414,614.496 886.748,615.329 887.5,616C 892.988,617.607 898.322,619.607 903.5,622C 912.932,623.235 917.099,619.068 916,609.5C 914.833,608.333 913.667,607.167 912.5,606C 907.149,603.72 901.816,601.554 896.5,599.5C 908.266,581.623 920.266,563.956 932.5,546.5C 932.5,633.833 932.5,721.167 932.5,808.5C 913.054,802.631 893.387,797.465 873.5,793C 804.7,778.37 737.367,783.203 671.5,807.5C 671.333,698.833 671.5,590.166 672,481.5C 678.532,477.985 685.365,475.152 692.5,473C 704.867,469.825 717.201,466.491 729.5,463C 798.544,450.738 865.878,456.905 931.5,481.5 Z"/></g>
<g><path style="opacity:1" fill="#9fc0f8" d="M 393.5,480.5 C 393.167,589.668 393.501,698.668 394.5,807.5C 394.44,808.043 394.107,808.376 393.5,808.5C 392.168,699.001 392.168,589.667 393.5,480.5 Z"/></g>
<g><path style="opacity:1" fill="#9ec0f8" d="M 931.5,481.5 C 932.167,495.167 932.833,508.833 933.5,522.5C 933.167,523.167 932.833,523.833 932.5,524.5C 931.504,510.343 931.171,496.01 931.5,481.5 Z"/></g>
<g><path style="opacity:1" fill="#9fc0f8" d="M 950.5,519.5 C 951.833,632.5 951.833,745.5 950.5,858.5C 950.833,745.999 950.5,633.665 949.5,521.5C 949.833,520.833 950.167,520.167 950.5,519.5 Z"/></g>
<g><path style="opacity:1" fill="#4787f4" d="M 493.5,523.5 C 537.94,520.024 580.94,526.191 622.5,542C 633.377,545.702 635.043,551.702 627.5,560C 625.833,560.167 624.167,560.333 622.5,560.5C 609.638,557.38 596.971,553.546 584.5,549C 529.323,535.888 475.323,539.555 422.5,560C 412.423,562.558 407.923,558.725 409,548.5C 411.264,545.567 414.098,543.4 417.5,542C 442.323,533.215 467.656,527.048 493.5,523.5 Z"/></g>
<g><path style="opacity:1" fill="#4686f4" d="M 915.5,548.5 C 913.218,552.777 910.551,556.777 907.5,560.5C 896.053,557.519 884.72,554.019 873.5,550C 831.693,540.012 789.693,539.012 747.5,547C 732.518,552.105 717.352,556.605 702,560.5C 698.455,560.961 695.788,559.628 694,556.5C 691.998,550.315 693.831,545.815 699.5,543C 714.844,538.329 730.178,533.663 745.5,529C 800.399,518.421 854.065,522.754 906.5,542C 910.5,542.84 913.5,545.006 915.5,548.5 Z"/></g>
<g><path style="opacity:1" fill="#4686f4" d="M 502.5,584.5 C 531.941,583.033 560.941,585.867 589.5,593C 601.756,597.196 614.089,601.196 626.5,605C 631.155,607.897 632.655,612.063 631,617.5C 628.844,620.665 625.844,622.332 622,622.5C 554.558,596.034 487.058,595.867 419.5,622C 411.268,622.109 407.768,617.942 409,609.5C 410.5,608 412,606.5 413.5,605C 442.337,594.1 472.003,587.266 502.5,584.5 Z"/></g>
<g><path style="opacity:1" fill="#4586f4" d="M 883.5,595.5 C 880.314,601.218 876.648,606.552 872.5,611.5C 831.818,600.958 790.818,599.791 749.5,608C 733.476,612.205 717.643,617.038 702,622.5C 698.61,622.131 695.943,620.465 694,617.5C 692.034,609.26 695.2,604.427 703.5,603C 762.648,581.066 822.648,578.566 883.5,595.5 Z"/></g>
<g><path style="opacity:1" fill="#4b88f3" d="M 896.5,599.5 C 901.816,601.554 907.149,603.72 912.5,606C 913.667,607.167 914.833,608.333 916,609.5C 917.099,619.068 912.932,623.235 903.5,622C 898.322,619.607 892.988,617.607 887.5,616C 886.748,615.329 886.414,614.496 886.5,613.5C 889.478,608.531 892.811,603.865 896.5,599.5 Z"/></g>
<g><path style="opacity:1" fill="#4686f4" d="M 506.5,645.5 C 548.346,644.236 588.679,651.403 627.5,667C 633.737,671.613 634.071,676.613 628.5,682C 626.634,682.985 624.634,683.485 622.5,683.5C 610.003,680.168 597.67,676.334 585.5,672C 529.884,657.83 475.551,661.497 422.5,683C 413.011,684.837 408.511,681.004 409,671.5C 410.5,669.333 412.333,667.5 414.5,666C 444.291,654.895 474.958,648.062 506.5,645.5 Z"/></g>
<g><path style="opacity:1" fill="#4687f4" d="M 846.5,650.5 C 843.167,655.5 839.833,660.5 836.5,665.5C 832.833,665.5 829.167,665.5 825.5,665.5C 823.441,662.389 821.608,659.056 820,655.5C 816.333,651.5 812.667,651.5 809,655.5C 807.546,658.071 806.38,660.738 805.5,663.5C 790.698,663.014 776.032,664.18 761.5,667C 741.572,671.552 721.906,677.052 702.5,683.5C 699.219,683.109 696.385,681.776 694,679.5C 691.546,672.25 694.046,667.417 701.5,665C 746.729,647.427 793.396,641.927 841.5,648.5C 843.64,648.556 845.306,649.223 846.5,650.5 Z"/></g>
<g><path style="opacity:1" fill="#4787f3" d="M 860.5,651.5 C 878.817,654.93 896.484,660.43 913.5,668C 914.97,669.793 915.97,671.793 916.5,674C 915.16,682.01 910.493,685.01 902.5,683C 886.339,676.447 869.672,671.613 852.5,668.5C 851.287,668.253 850.62,667.586 850.5,666.5C 853.833,661.5 857.167,656.5 860.5,651.5 Z"/></g>
<g><path style="opacity:1" fill="#fdfcf7" d="M 825.5,665.5 C 829.167,665.5 832.833,665.5 836.5,665.5C 834.343,668.471 832.176,671.471 830,674.5C 827.962,671.757 826.462,668.757 825.5,665.5 Z"/></g>
<g><path style="opacity:1" fill="#fcfcfb" d="M 834.5,708.5 C 820.178,707.789 805.844,707.456 791.5,707.5C 787.746,705.252 784.412,702.419 781.5,699C 788.904,697.545 796.238,695.878 803.5,694C 807.309,687.546 810.975,681.046 814.5,674.5C 818.263,680.638 821.929,686.805 825.5,693C 832.542,693.836 839.542,694.836 846.5,696C 842.997,700.669 838.997,704.836 834.5,708.5 Z"/></g>
<g><path style="opacity:1" fill="#4687f4" d="M 499.5,707.5 C 544.262,704.393 587.262,711.56 628.5,729C 632.728,734.284 632.395,739.284 627.5,744C 625.722,744.704 623.888,745.204 622,745.5C 554.582,719.025 487.082,718.858 419.5,745C 411.246,745.045 407.746,740.878 409,732.5C 410.873,730.291 413.04,728.458 415.5,727C 442.773,716.842 470.773,710.342 499.5,707.5 Z"/></g>
<g><path style="opacity:1" fill="#4586f3" d="M 791.5,707.5 C 805.844,707.456 820.178,707.789 834.5,708.5C 832.84,710.322 831.84,712.489 831.5,715C 832.223,718.837 832.889,722.67 833.5,726.5C 821.187,725.656 808.854,725.323 796.5,725.5C 797.004,721.493 797.17,717.493 797,713.5C 794.96,711.63 793.127,709.63 791.5,707.5 Z"/></g>
<g><path style="opacity:1" fill="#4787f3" d="M 772.5,708.5 C 776.166,711.997 779.999,715.331 784,718.5C 784.722,721.261 784.555,723.927 783.5,726.5C 776.46,726.413 769.46,726.913 762.5,728C 741.977,732.12 721.977,737.953 702.5,745.5C 694.533,744.021 691.7,739.354 694,731.5C 697.374,728.591 701.207,726.424 705.5,725C 727.235,717.15 749.569,711.65 772.5,708.5 Z"/></g>
<g><path style="opacity:1" fill="#4787f3" d="M 849.5,711.5 C 870.8,714.492 891.467,719.992 911.5,728C 919.31,736.463 917.644,742.297 906.5,745.5C 887.115,737.655 867.115,732.321 846.5,729.5C 846.236,725.607 845.569,721.774 844.5,718C 845.21,715.12 846.877,712.953 849.5,711.5 Z"/></g>
<g><path style="opacity:1" fill="#fbfaf7" d="M 796.5,725.5 C 808.854,725.323 821.187,725.656 833.5,726.5C 834.084,729.003 834.751,731.503 835.5,734C 835.167,734.5 834.833,735 834.5,735.5C 828.167,732.083 821.667,729.083 815,726.5C 808.117,729.702 801.451,733.369 795,737.5C 794.892,733.424 795.392,729.424 796.5,725.5 Z"/></g>
<g><path style="opacity:1" fill="#fafcfe" d="M 504.5,802.5 C 555.312,802.686 604.645,811.186 652.5,828C 653.471,833.072 653.805,838.238 653.5,843.5C 628.193,835.923 602.526,829.757 576.5,825C 513.542,814.334 452.376,820.5 393,843.5C 392.171,838.136 392.337,832.802 393.5,827.5C 429.205,812.895 466.205,804.562 504.5,802.5 Z"/></g>
<g><path style="opacity:1" fill="#fafcfe" d="M 783.5,802.5 C 834.312,802.686 883.645,811.186 931.5,828C 932.639,833.416 932.806,838.916 932,844.5C 845.339,813.366 758.506,812.699 671.5,842.5C 671.173,837.456 671.506,832.456 672.5,827.5C 708.205,812.895 745.205,804.562 783.5,802.5 Z"/></g>
</svg>
